<svg version="1.1" xmlns="http://www.w3.org/2000/svg" style="display: block;" viewBox="0 0 2048 803" width="1632" height="640" preserveAspectRatio="none">
<path transform="translate(0,0)" fill="rgb(255,255,255)" d="M 0 0 L 2048 0 L 2048 803 L 0 803 L 0 0 z"/>
<path transform="translate(0,0)" fill="rgb(21,202,222)" d="M 314.531 89.4255 C 414.653 84.823 552.013 91.0787 610.383 185.481 C 654.844 257.386 656.742 375.398 639.729 455.637 C 617.557 560.208 535.245 607.57 435.123 620.33 C 423.253 621.871 411.327 622.949 399.373 623.561 C 356.261 625.687 359.915 620.725 322.822 643.91 C 300.429 658.046 239.315 704.968 216.83 705.406 C 210.333 705.532 203.645 703.665 198.966 698.972 C 195.052 695.047 193.095 689.853 192.069 684.51 C 188.591 666.415 191.981 625.682 192.136 604.747 C 90.246 570.571 51.6759 486.821 48.2804 384.658 C 45.7865 309.624 50.9784 221.24 103.628 162.187 C 157.557 101.701 238.511 93.5575 314.531 89.4255 z"/>
<path transform="translate(0,0)" fill="rgb(255,255,255)" d="M 325.539 163.463 C 370.922 162.639 412.285 163.205 456.577 171.701 C 541.101 187.916 568.106 242.848 572.474 322.843 C 574.977 368.685 573.883 403.908 564.23 449.123 C 553.509 427.309 544.248 410.653 520.952 399.975 C 499.239 390.023 478.865 391.405 457.04 399.402 C 481.621 443.884 489.949 477.952 491.042 529.346 C 483.56 532.471 470.934 536.236 462.879 538.88 C 459.594 469.297 450.674 387.313 370.156 365.285 C 285.672 351.907 246.334 417.499 237.313 492.076 C 235.43 507.646 234.845 522.627 234.152 538.275 C 223.427 535.234 215.854 532.957 205.518 528.884 C 206.688 477.176 216.054 443.83 240.103 399.371 C 221.436 391.697 199.074 390.625 180.19 397.949 C 154.428 407.939 143.492 425.889 132.689 449.432 C 127.935 425.779 125.228 405.183 124.634 380.915 C 123.311 326.802 122.835 252.731 162.117 210.475 C 200.214 169.495 273.28 165.204 325.539 163.463 z"/>
<path transform="translate(0,0)" fill="rgb(21,202,222)" d="M 341.235 218.074 C 375.336 214.102 406.25 238.398 410.453 272.471 C 414.655 306.545 390.569 337.623 356.525 342.056 C 322.153 346.531 290.71 322.163 286.468 287.762 C 282.225 253.36 306.805 222.083 341.235 218.074 z"/>
<path transform="translate(0,0)" fill="rgb(21,202,222)" d="M 481.536 276.168 C 508.856 272.878 533.62 292.491 536.677 319.838 C 539.733 347.185 519.91 371.781 492.537 374.603 C 465.494 377.392 441.258 357.859 438.238 330.84 C 435.218 303.821 454.544 279.419 481.536 276.168 z"/>
<path transform="translate(0,0)" fill="rgb(21,202,222)" d="M 203.186 276.19 C 230.171 272.709 254.909 291.653 258.582 318.612 C 262.255 345.571 243.488 370.443 216.556 374.308 C 189.351 378.212 164.172 359.213 160.462 331.982 C 156.751 304.75 175.929 279.707 203.186 276.19 z"/>
<path transform="translate(0,0)" fill="rgb(21,202,222)" d="M 840.988 236.436 C 868.736 235.07 890.969 244.842 911.806 262.144 L 913.135 243.236 C 934.069 243.027 955.005 243.012 975.939 243.19 L 976 392.758 C 976.036 454.292 985.23 526.591 926.533 566.122 C 904.267 581.118 880.849 586.482 854.338 586.899 C 810.512 587.588 775.096 574.671 743.583 543.946 L 761.865 526.441 C 769.735 519.065 777.429 511.503 784.941 503.761 C 813.673 528.489 860.124 544.147 892.183 514.114 C 908.63 498.706 911.111 478.518 911.283 456.955 C 892.444 472.221 877.232 481.123 852.525 482.857 C 695.987 493.846 682.336 246.674 840.988 236.436 z"/>
<path transform="translate(0,0)" fill="rgb(255,255,255)" d="M 846.743 295.318 C 861.254 294.298 874.12 296.173 886.446 304.476 C 923.237 329.26 922.271 401.421 879.997 420.558 C 873.647 423.433 869.089 424.568 862.228 425.827 C 780.969 436.87 770.676 305.695 846.743 295.318 z"/>
<path transform="translate(0,0)" fill="rgb(21,202,222)" d="M 1857.26 236.382 C 1881.86 232.565 1915.98 242.929 1935.2 258.766 C 1988.61 302.776 1993.27 398.618 1950.42 451.311 C 1933.02 472.885 1907.6 486.476 1880 488.972 C 1842.46 492.709 1821.15 485.865 1792.88 462.766 C 1793.15 480.508 1793.32 498.251 1793.38 515.995 L 1793.43 578.391 C 1771.58 578.032 1749.18 578.244 1727.29 578.222 L 1727.11 243.256 L 1791.67 243.156 L 1792.2 264.838 C 1812.27 246.843 1830.72 239.336 1857.26 236.382 z"/>
<path transform="translate(0,0)" fill="rgb(255,255,255)" d="M 1846.75 295.326 C 1857.99 293.233 1876.05 298.2 1885.37 304.909 C 1915.54 326.496 1919.03 379.236 1898.53 408.28 C 1888.46 422.542 1875.16 427.329 1858.7 429.967 C 1824.11 431.954 1797.37 412.228 1792.7 377.555 C 1787.03 335.424 1802.64 301.781 1846.75 295.326 z"/>
<path transform="translate(0,0)" fill="rgb(21,202,222)" d="M 1561.57 235.76 C 1632.11 230.011 1693.97 282.516 1699.76 353.056 C 1705.55 423.597 1653.08 485.483 1582.54 491.309 C 1511.95 497.139 1450 444.619 1444.21 374.024 C 1438.42 303.429 1490.97 241.514 1561.57 235.76 z"/>
<path transform="translate(0,0)" fill="rgb(255,255,255)" d="M 1568.2 295.389 C 1568.31 295.369 1568.42 295.35 1568.54 295.33 C 1637.71 289.431 1653.74 397.352 1599.05 425.815 C 1591.46 429.77 1585.24 430.734 1577.2 431.964 C 1540.73 433.622 1516.5 410.258 1512.93 374.697 C 1508.86 334.231 1525.16 299.952 1568.2 295.389 z"/>
<path transform="translate(0,0)" fill="rgb(21,202,222)" d="M 1284.93 235.941 C 1355.36 230.37 1416.99 282.883 1422.67 353.299 C 1428.35 423.715 1375.94 485.43 1305.53 491.222 C 1234.97 497.026 1173.08 444.468 1167.39 373.896 C 1161.7 303.324 1214.35 241.525 1284.93 235.941 z"/>
<path transform="translate(0,0)" fill="rgb(255,255,255)" d="M 1290.67 295.362 C 1301.38 293.56 1319.45 298.156 1328.46 304.849 C 1342.09 314.783 1350.99 330.576 1353.56 347.284 C 1359.68 387.096 1346.12 424.472 1303.33 431.901 C 1287.32 432.885 1273.6 430.814 1260.5 420.764 C 1224.14 392.866 1226.87 317.254 1272.58 299.572 C 1279.17 297.024 1283.64 296.244 1290.67 295.362 z"/>
<path transform="translate(0,0)" fill="rgb(21,202,222)" d="M 1134.68 237.221 C 1143 236.166 1151.01 236.872 1159.31 237.47 C 1160.04 258.114 1159.29 283.151 1159.26 304.176 C 1153.17 303.891 1147.09 303.723 1141 303.673 C 1125.47 303.672 1109.78 308.214 1098.65 319.432 C 1078.4 339.829 1082.92 375.583 1082.98 402.235 L 1083 481.464 C 1062.46 481.922 1040.35 481.478 1019.75 481.352 L 1017.92 480.779 C 1016.55 478.603 1017.1 269.461 1016.99 243.16 C 1037.93 243.035 1058.87 243.024 1079.8 243.129 L 1081.59 267.798 C 1095.62 250.197 1113.03 241.346 1134.68 237.221 z"/>
</svg>